<svg xmlns="http://www.w3.org/2000/svg" xmlns:xlink="http://www.w3.org/1999/xlink" viewBox="0,0,256,256" width="22px" height="22px" fill-rule="nonzero"><g fill="#2f2f2f" fill-rule="nonzero" stroke="none" stroke-width="1" stroke-linecap="butt" stroke-linejoin="miter" stroke-miterlimit="10" stroke-dasharray="" stroke-dashoffset="0" font-family="none" font-weight="none" font-size="none" text-anchor="none" style="mix-blend-mode: normal"><path d="M0,256v-256h256v256z" id="bgRectangle"></path></g><g fill="none" fill-rule="nonzero" stroke="#faeded" stroke-width="5.33333" stroke-linecap="butt" stroke-linejoin="miter" stroke-miterlimit="10" stroke-dasharray="" stroke-dashoffset="0" font-family="none" font-weight="none" font-size="none" text-anchor="none" style="mix-blend-mode: normal"><path d="M65.75076,252.49848c-34.37931,0 -62.24924,-27.86993 -62.24924,-62.24924v-124.49848c0,-34.37931 27.86993,-62.24924 62.24924,-62.24924h124.49848c34.37931,0 62.24924,27.86993 62.24924,62.24924v124.49848c0,34.37931 -27.86993,62.24924 -62.24924,62.24924z" id="shape"></path></g><g fill="none" fill-rule="nonzero" stroke="none" stroke-width="none" stroke-linecap="none" stroke-linejoin="none" stroke-miterlimit="10" stroke-dasharray="" stroke-dashoffset="0" font-family="none" font-weight="none" font-size="none" text-anchor="none" style="mix-blend-mode: normal"><g transform="scale(5.33333,5.33333)"><path d="M41.5,21.1v-4.6c0,-5.5 -4.5,-10 -10,-10h-15c-5.5,0 -10,4.5 -10,10v3" fill="none" stroke="#ffffff" stroke-width="3" stroke-linecap="round" stroke-linejoin="round"></path><path d="M6.5,25.6v5.9c0,5.5 4.5,10 10,10h15c5.5,0 10,-4.5 10,-10v-4.6" fill="none" stroke="#ffffff" stroke-width="3" stroke-linecap="round" stroke-linejoin="round"></path><path d="M24,15.5c-4.7,0 -8.5,3.8 -8.5,8.5c0,4.7 3.8,8.5 8.5,8.5c4.7,0 8.5,-3.8 8.5,-8.5c0,-4.7 -3.8,-8.5 -8.5,-8.5z" fill="none" stroke="#ffffff" stroke-width="3" stroke-linecap="butt" stroke-linejoin="miter"></path><path d="M34,12c-1.1,0 -2,0.9 -2,2c0,1.1 0.9,2 2,2c1.1,0 2,-0.9 2,-2c0,-1.1 -0.9,-2 -2,-2z" fill="#ffffff" stroke="none" stroke-width="1" stroke-linecap="butt" stroke-linejoin="miter"></path></g></g></svg>